<?xml version="1.0" ?><svg enable-background="new 0 0 32 32" version="1.1" viewBox="0 0 32 32" xml:space="preserve" xmlns="http://www.w3.org/2000/svg" xmlns:xlink="http://www.w3.org/1999/xlink"><g id="Christmas"/><g id="Shop_1_"><g id="basketadd"><line fill="none" stroke="#000000" stroke-linecap="round" stroke-miterlimit="10" stroke-width="2" x1="18" x2="18" y1="5" y2="17"/><polyline fill="none" points="    14,13 18,17 22,13   " stroke="#000000" stroke-linecap="round" stroke-linejoin="round" stroke-miterlimit="10" stroke-width="2"/><g><g><path d="M11,26c1.1,0,2,0.9,2,2s-0.9,2-2,2s-2-0.9-2-2S9.9,26,11,26 M11,24c-2.2,0-4,1.8-4,4s1.8,4,4,4s4-1.8,4-4S13.2,24,11,24      L11,24z"/></g><g><path d="M23,26c1.1,0,2,0.9,2,2s-0.9,2-2,2s-2-0.9-2-2S21.9,26,23,26 M23,24c-2.2,0-4,1.8-4,4s1.8,4,4,4s4-1.8,4-4      S25.2,24,23,24L23,24z"/></g><polyline fill="none" points="     9,21 27,21 30,9 22,9    " stroke="#000000" stroke-linecap="round" stroke-linejoin="round" stroke-miterlimit="10" stroke-width="2"/><polyline fill="none" points="9,21 4,1 2,1         " stroke="#000000" stroke-linecap="round" stroke-miterlimit="10" stroke-width="2"/></g><line fill="none" stroke="#000000" stroke-linecap="round" stroke-linejoin="round" stroke-miterlimit="10" stroke-width="2" x1="14" x2="6" y1="9" y2="9"/></g></g></svg>